<svg id="svg" version="1.1" xmlns="http://www.w3.org/2000/svg" xmlns:xlink="http://www.w3.org/1999/xlink" width="20" height="20" viewBox="0, 0, 400,400"><g id="svgg"><path id="path0" d="M116.705 75.100 L 116.600 89.000 88.900 89.103 L 61.200 89.205 61.200 137.600 L 61.200 185.995 88.900 186.097 L 116.600 186.200 116.704 207.100 L 116.807 228.000 130.604 228.000 L 144.400 228.000 144.400 207.000 L 144.400 186.000 172.200 186.000 L 200.000 186.000 200.000 137.600 L 200.000 89.200 172.200 89.200 L 144.400 89.200 144.400 75.200 L 144.400 61.200 130.605 61.200 L 116.810 61.200 116.705 75.100 M227.600 88.772 L 227.600 102.800 250.576 102.800 C 265.463 102.800,273.640 102.941,273.800 103.200 C 273.936 103.420,274.387 103.600,274.803 103.600 C 281.873 103.600,292.696 112.756,295.278 120.921 C 295.778 122.505,296.371 123.928,296.594 124.085 C 296.854 124.268,297.044 130.468,297.124 141.385 L 297.247 158.400 311.262 158.400 L 325.277 158.400 325.083 140.900 C 324.882 122.835,324.541 118.696,323.013 115.765 C 322.678 115.124,322.404 114.303,322.402 113.940 C 322.398 112.713,319.594 106.004,317.992 103.386 C 317.116 101.956,316.400 100.635,316.400 100.451 C 316.400 100.267,315.995 99.677,315.500 99.139 C 315.005 98.601,314.107 97.412,313.504 96.496 C 311.880 94.027,305.442 87.743,302.856 86.103 C 301.615 85.316,300.456 84.430,300.280 84.136 C 300.104 83.841,299.804 83.600,299.613 83.600 C 299.422 83.600,297.879 82.780,296.184 81.778 C 292.949 79.865,288.492 78.078,284.796 77.210 C 283.588 76.927,282.420 76.558,282.200 76.390 C 280.817 75.333,275.285 75.062,251.900 74.906 L 227.600 74.745 227.600 88.772 M116.600 137.600 L 116.600 158.200 102.700 158.305 L 88.800 158.410 88.800 137.600 L 88.800 116.790 102.700 116.895 L 116.600 117.000 116.600 137.600 M172.000 137.600 L 172.000 158.400 158.200 158.400 L 144.400 158.400 144.400 137.600 L 144.400 116.800 158.200 116.800 L 172.000 116.800 172.000 137.600 M255.091 172.900 C 254.773 174.314,252.711 179.778,252.412 180.000 C 252.263 180.110,251.461 182.090,250.628 184.400 C 249.795 186.710,248.891 188.960,248.619 189.400 C 248.166 190.130,246.935 193.348,245.328 198.000 C 244.986 198.990,244.579 199.890,244.424 200.000 C 244.269 200.110,243.461 202.090,242.628 204.400 C 241.795 206.710,240.891 208.960,240.619 209.400 C 240.166 210.130,238.935 213.348,237.328 218.000 C 236.986 218.990,236.579 219.890,236.424 220.000 C 236.269 220.110,235.461 222.090,234.628 224.400 C 233.795 226.710,232.891 228.960,232.619 229.400 C 232.166 230.130,230.935 233.348,229.328 238.000 C 228.986 238.990,228.579 239.890,228.424 240.000 C 228.269 240.110,227.461 242.090,226.628 244.400 C 225.795 246.710,224.883 248.969,224.600 249.421 C 224.317 249.872,223.808 251.042,223.468 252.021 C 221.781 256.882,220.655 259.819,220.412 260.000 C 220.263 260.110,219.461 262.090,218.628 264.400 C 217.795 266.710,216.883 268.969,216.600 269.421 C 216.317 269.872,215.808 271.042,215.468 272.021 C 213.781 276.882,212.655 279.819,212.412 280.000 C 212.263 280.110,211.461 282.090,210.628 284.400 C 209.795 286.710,208.891 288.960,208.619 289.400 C 208.166 290.130,206.935 293.348,205.328 298.000 C 204.986 298.990,204.579 299.890,204.424 300.000 C 204.269 300.110,203.461 302.090,202.628 304.400 C 201.795 306.710,200.891 308.960,200.619 309.400 C 200.166 310.130,198.935 313.348,197.328 318.000 C 196.986 318.990,196.583 319.890,196.433 320.000 C 196.191 320.178,194.400 324.617,194.400 325.040 C 194.400 325.133,201.186 325.162,209.480 325.105 L 224.560 325.000 225.465 322.471 C 225.963 321.079,226.659 319.369,227.011 318.671 C 227.637 317.428,230.057 311.085,230.587 309.300 C 230.734 308.805,231.001 308.400,231.180 308.400 C 231.360 308.400,231.597 307.995,231.708 307.500 C 231.993 306.224,234.272 300.138,235.022 298.649 C 235.639 297.423,238.062 291.071,238.587 289.300 C 238.734 288.805,239.022 288.400,239.227 288.400 C 239.432 288.400,239.600 288.145,239.600 287.833 C 239.600 287.521,239.954 286.441,240.386 285.433 L 241.172 283.600 269.531 283.600 L 297.891 283.600 298.546 285.313 C 298.906 286.256,299.200 287.175,299.200 287.355 C 299.200 287.536,299.629 288.537,300.152 289.580 C 300.676 290.623,301.788 293.349,302.623 295.638 C 303.458 297.927,304.269 299.890,304.424 300.000 C 304.579 300.110,304.987 301.010,305.331 302.000 C 306.989 306.773,307.765 308.786,308.800 311.000 C 310.009 313.586,311.554 317.639,311.888 319.100 C 312.001 319.595,312.238 320.000,312.416 320.000 C 312.593 320.000,312.945 320.675,313.198 321.500 C 313.452 322.325,313.847 323.495,314.078 324.100 L 314.497 325.200 329.449 325.200 C 346.303 325.200,345.174 325.457,343.448 322.020 C 342.924 320.977,341.812 318.251,340.977 315.962 C 340.142 313.673,339.337 311.710,339.188 311.600 C 338.945 311.419,337.819 308.482,336.132 303.621 C 335.792 302.642,335.283 301.472,335.000 301.021 C 334.717 300.569,333.805 298.310,332.972 296.000 C 332.139 293.690,331.337 291.710,331.188 291.600 C 330.945 291.419,329.819 288.482,328.132 283.621 C 327.792 282.642,327.283 281.472,327.000 281.021 C 326.717 280.569,325.805 278.310,324.972 276.000 C 324.139 273.690,323.337 271.710,323.188 271.600 C 322.945 271.419,321.819 268.482,320.132 263.621 C 319.792 262.642,319.283 261.472,319.000 261.021 C 318.717 260.569,317.805 258.310,316.972 256.000 C 316.139 253.690,315.337 251.710,315.188 251.600 C 314.945 251.419,313.819 248.482,312.132 243.621 C 311.792 242.642,311.283 241.472,311.000 241.021 C 310.717 240.569,309.805 238.310,308.972 236.000 C 308.139 233.690,307.337 231.710,307.188 231.600 C 306.945 231.419,305.819 228.482,304.132 223.621 C 303.792 222.642,303.283 221.472,303.000 221.021 C 302.717 220.569,301.805 218.310,300.972 216.000 C 300.139 213.690,299.331 211.710,299.176 211.600 C 299.021 211.490,298.614 210.590,298.272 209.600 C 296.665 204.948,295.434 201.730,294.981 201.000 C 294.709 200.560,293.805 198.310,292.972 196.000 C 292.139 193.690,291.331 191.710,291.176 191.600 C 291.021 191.490,290.614 190.590,290.272 189.600 C 288.667 184.953,287.434 181.730,286.982 181.000 C 286.710 180.560,285.905 178.580,285.192 176.600 C 284.480 174.620,283.718 172.775,283.500 172.500 C 283.195 172.117,279.842 172.000,269.198 172.000 L 255.293 172.000 255.091 172.900 M270.342 214.500 C 270.978 216.680,272.184 219.788,272.480 220.011 C 272.634 220.128,273.474 222.198,274.346 224.611 C 275.218 227.025,276.219 229.562,276.570 230.249 C 277.192 231.467,279.455 237.406,279.904 239.000 C 280.028 239.440,280.272 239.895,280.445 240.011 C 280.618 240.128,281.479 242.228,282.357 244.679 C 283.235 247.131,284.144 249.465,284.377 249.868 C 285.100 251.118,286.400 254.437,286.400 255.033 C 286.400 255.513,283.802 255.600,269.400 255.600 C 260.050 255.600,252.400 255.506,252.400 255.392 C 252.400 255.278,252.850 254.077,253.400 252.723 C 253.950 251.370,254.400 250.036,254.400 249.760 C 254.400 249.483,254.637 249.019,254.928 248.729 C 255.218 248.438,255.560 247.840,255.688 247.400 C 256.167 245.754,258.416 239.852,259.022 238.649 C 259.639 237.423,262.062 231.071,262.587 229.300 C 262.734 228.805,263.001 228.400,263.180 228.400 C 263.360 228.400,263.597 227.995,263.708 227.500 C 264.027 226.071,266.188 220.398,267.344 217.955 C 267.925 216.727,268.400 215.617,268.400 215.487 C 268.400 213.445,269.823 212.722,270.342 214.500 M74.908 258.900 C 75.078 275.176,75.446 280.965,76.390 282.200 C 76.558 282.420,76.925 283.590,77.205 284.800 C 78.005 288.246,79.979 293.127,81.870 296.333 C 82.821 297.946,83.600 299.422,83.600 299.613 C 83.600 299.804,83.841 300.104,84.136 300.280 C 84.430 300.456,85.316 301.615,86.103 302.856 C 87.894 305.679,94.229 312.056,96.838 313.661 C 97.917 314.325,98.800 315.003,98.800 315.167 C 98.800 315.331,99.295 315.718,99.900 316.027 C 100.505 316.336,102.122 317.262,103.493 318.086 C 106.058 319.626,112.767 322.398,113.940 322.402 C 114.303 322.404,115.124 322.678,115.765 323.013 C 118.974 324.686,122.332 324.902,147.900 325.085 L 172.400 325.259 172.400 311.245 L 172.400 297.230 148.585 297.115 C 133.034 297.040,124.671 296.859,124.485 296.593 C 124.328 296.370,123.304 295.955,122.210 295.671 C 113.434 293.396,105.109 284.270,103.791 275.479 C 103.635 274.440,103.348 273.492,103.154 273.371 C 102.958 273.251,102.800 266.091,102.800 257.376 L 102.800 241.600 88.764 241.600 L 74.728 241.600 74.908 258.900 " stroke="none" fill="#fcfcfc" fill-rule="evenodd"></path><path id="path1" d="M47.411 2.664 C 45.657 2.981,44.127 3.372,44.011 3.533 C 43.895 3.694,42.810 4.067,41.600 4.362 C 38.910 5.017,33.083 7.195,32.777 7.660 C 32.654 7.847,31.304 8.616,29.777 9.371 C 28.249 10.125,26.280 11.385,25.400 12.171 C 24.520 12.956,23.626 13.600,23.412 13.600 C 23.006 13.600,21.491 14.969,18.277 18.242 C 14.870 21.711,14.144 22.565,12.961 24.499 C 12.323 25.544,11.674 26.399,11.519 26.399 C 11.365 26.400,10.466 27.975,9.521 29.900 C 8.576 31.825,7.581 33.634,7.309 33.921 C 6.749 34.512,4.509 41.424,4.141 43.700 C 4.007 44.525,3.763 45.200,3.598 45.200 C 2.468 45.200,2.400 53.950,2.400 200.400 C 2.400 348.123,2.460 355.600,3.649 355.600 C 3.842 355.600,4.000 355.940,4.000 356.355 C 4.000 358.391,6.974 367.200,7.661 367.200 C 7.847 367.200,8.001 367.425,8.002 367.700 C 8.005 368.559,10.815 373.724,11.832 374.741 C 12.364 375.273,12.800 375.918,12.800 376.174 C 12.800 377.128,22.380 387.200,23.288 387.200 C 23.493 387.200,24.161 387.695,24.771 388.300 C 25.381 388.905,26.852 389.918,28.040 390.551 C 29.228 391.184,30.290 391.836,30.400 392.000 C 30.632 392.346,33.327 393.596,36.432 394.797 C 37.625 395.259,39.175 395.902,39.877 396.226 C 40.580 396.550,42.830 397.214,44.877 397.701 L 48.600 398.585 199.200 398.710 C 307.771 398.799,350.693 398.711,353.000 398.391 C 357.180 397.813,362.564 396.484,362.733 395.990 C 362.807 395.775,363.127 395.600,363.445 395.600 C 364.500 395.600,370.951 392.776,371.600 392.030 C 371.710 391.904,372.430 391.462,373.200 391.049 C 376.487 389.286,377.434 388.693,378.000 388.045 C 378.330 387.668,379.320 386.837,380.200 386.198 C 382.889 384.248,388.894 377.717,389.891 375.657 C 390.221 374.976,390.875 373.991,391.345 373.467 C 392.202 372.513,393.857 369.363,394.814 366.866 C 395.095 366.132,395.535 365.322,395.790 365.066 C 396.421 364.434,398.247 357.808,398.993 353.448 C 399.919 348.029,399.914 52.728,398.988 47.352 C 398.229 42.949,396.410 36.400,395.945 36.400 C 395.755 36.400,395.600 36.231,395.600 36.024 C 395.600 35.238,392.306 28.585,391.766 28.280 C 391.455 28.104,391.200 27.786,391.200 27.574 C 391.200 26.249,386.178 20.048,381.967 16.174 C 379.417 13.828,373.665 9.784,371.800 9.025 C 370.920 8.667,370.020 8.154,369.800 7.886 C 369.101 7.034,360.812 4.018,359.133 4.005 C 358.767 4.002,358.407 3.827,358.333 3.616 C 357.735 1.894,56.765 0.972,47.411 2.664 M144.705 74.900 L 144.810 88.800 172.405 88.800 L 200.000 88.800 200.000 137.600 L 200.000 186.400 172.400 186.400 L 144.800 186.400 144.800 207.200 L 144.800 228.000 130.600 228.000 L 116.400 228.000 116.400 207.200 L 116.400 186.400 88.600 186.400 L 60.800 186.400 60.800 137.600 L 60.800 88.800 88.600 88.800 L 116.400 88.800 116.400 74.795 L 116.400 60.790 130.500 60.895 L 144.600 61.000 144.705 74.900 M277.400 75.067 C 277.840 75.324,279.820 75.825,281.800 76.181 C 285.920 76.920,291.600 78.689,291.600 79.233 C 291.600 79.435,291.873 79.600,292.206 79.600 C 292.912 79.600,299.079 82.679,299.271 83.127 C 299.342 83.294,300.210 83.900,301.200 84.475 C 305.072 86.723,313.353 94.921,315.225 98.359 C 315.568 98.990,316.158 99.815,316.536 100.193 C 318.699 102.356,323.995 115.750,323.999 119.067 C 324.000 119.543,324.164 119.993,324.364 120.067 C 325.126 120.346,325.600 129.481,325.600 143.869 L 325.600 158.800 311.200 158.800 L 296.800 158.800 296.800 143.055 C 296.800 124.194,296.908 124.966,293.169 117.022 C 291.290 113.028,285.600 107.884,280.800 105.838 C 279.370 105.229,277.570 104.431,276.800 104.065 C 275.552 103.472,272.799 103.387,251.500 103.282 L 227.600 103.165 227.600 88.753 L 227.600 74.341 252.100 74.470 C 269.857 74.564,276.820 74.729,277.400 75.067 M89.200 137.600 L 89.200 158.000 102.800 158.000 L 116.400 158.000 116.400 137.600 L 116.400 117.200 102.800 117.200 L 89.200 117.200 89.200 137.600 M144.800 137.600 L 144.800 158.000 158.400 158.000 L 172.000 158.000 172.000 137.600 L 172.000 117.200 158.400 117.200 L 144.800 117.200 144.800 137.600 M284.742 174.500 C 285.378 175.875,286.301 178.170,286.792 179.600 C 287.284 181.030,287.917 182.569,288.200 183.021 C 288.483 183.472,288.994 184.642,289.335 185.621 C 291.027 190.467,291.767 192.393,292.787 194.597 C 293.398 195.919,294.301 198.170,294.792 199.600 C 295.284 201.030,295.917 202.569,296.200 203.021 C 296.483 203.472,296.994 204.642,297.335 205.621 C 299.027 210.467,299.767 212.393,300.787 214.597 C 301.398 215.919,302.301 218.170,302.792 219.600 C 303.284 221.030,303.917 222.569,304.200 223.021 C 304.483 223.472,304.994 224.642,305.335 225.621 C 307.027 230.467,307.767 232.393,308.787 234.597 C 309.398 235.919,310.301 238.170,310.792 239.600 C 311.284 241.030,311.917 242.569,312.200 243.021 C 312.483 243.472,312.994 244.642,313.335 245.621 C 315.027 250.467,315.767 252.393,316.787 254.597 C 317.398 255.919,318.301 258.170,318.792 259.600 C 319.284 261.030,319.917 262.569,320.200 263.021 C 320.483 263.472,320.994 264.642,321.335 265.621 C 323.027 270.467,323.767 272.393,324.787 274.597 C 325.398 275.919,326.301 278.170,326.792 279.600 C 327.284 281.030,327.917 282.569,328.200 283.021 C 328.483 283.472,328.994 284.642,329.335 285.621 C 331.027 290.467,331.767 292.393,332.787 294.597 C 333.398 295.919,334.301 298.170,334.792 299.600 C 335.284 301.030,335.917 302.569,336.200 303.021 C 336.483 303.472,336.994 304.642,337.335 305.621 C 339.027 310.467,339.767 312.393,340.787 314.597 C 341.398 315.919,342.304 318.170,342.799 319.600 C 343.295 321.030,343.975 322.675,344.310 323.255 C 345.685 325.635,345.908 325.600,329.282 325.600 L 314.138 325.600 313.016 322.300 C 312.399 320.485,311.676 318.640,311.410 318.200 C 311.144 317.760,310.165 315.423,309.234 313.006 C 308.304 310.590,307.395 308.430,307.215 308.206 C 307.034 307.983,306.609 306.990,306.269 306.000 C 304.673 301.355,303.463 298.161,303.149 297.761 C 302.959 297.520,302.082 295.377,301.200 293.000 C 300.318 290.623,299.435 288.480,299.236 288.239 C 299.038 287.998,298.568 286.855,298.192 285.700 L 297.508 283.600 269.566 283.600 L 241.625 283.600 240.633 285.700 C 240.087 286.855,238.983 289.600,238.178 291.800 C 237.373 294.000,236.583 295.890,236.422 296.000 C 236.261 296.110,236.028 296.560,235.904 297.000 C 235.462 298.571,233.200 304.513,232.425 306.142 C 231.992 307.054,230.979 309.600,230.176 311.800 C 229.372 314.000,228.583 315.890,228.422 316.000 C 228.261 316.110,228.028 316.560,227.904 317.000 C 227.349 318.970,225.160 324.566,224.753 325.057 C 224.144 325.790,194.000 325.870,194.000 325.139 C 194.000 324.885,194.433 323.760,194.963 322.639 C 195.849 320.762,196.618 318.753,198.269 314.000 C 198.613 313.010,199.021 312.110,199.176 312.000 C 199.331 311.890,200.139 309.910,200.972 307.600 C 201.805 305.290,202.717 303.031,203.000 302.579 C 203.283 302.128,203.792 300.958,204.132 299.979 C 205.819 295.118,206.945 292.181,207.188 292.000 C 207.337 291.890,208.139 289.910,208.972 287.600 C 209.805 285.290,210.709 283.040,210.981 282.600 C 211.434 281.870,212.665 278.652,214.272 274.000 C 214.614 273.010,215.021 272.110,215.176 272.000 C 215.331 271.890,216.139 269.910,216.972 267.600 C 217.805 265.290,218.717 263.031,219.000 262.579 C 219.283 262.128,219.792 260.958,220.132 259.979 C 221.819 255.118,222.945 252.181,223.188 252.000 C 223.337 251.890,224.139 249.910,224.972 247.600 C 225.805 245.290,226.717 243.031,227.000 242.579 C 227.283 242.128,227.792 240.958,228.132 239.979 C 229.819 235.118,230.945 232.181,231.188 232.000 C 231.337 231.890,232.139 229.910,232.972 227.600 C 233.805 225.290,234.709 223.040,234.981 222.600 C 235.434 221.870,236.665 218.652,238.272 214.000 C 238.614 213.010,239.021 212.110,239.176 212.000 C 239.331 211.890,240.139 209.910,240.972 207.600 C 241.805 205.290,242.717 203.031,243.000 202.579 C 243.283 202.128,243.792 200.958,244.132 199.979 C 245.819 195.118,246.945 192.181,247.188 192.000 C 247.337 191.890,248.139 189.910,248.972 187.600 C 249.805 185.290,250.709 183.040,250.981 182.600 C 251.463 181.823,253.007 177.762,254.290 173.900 L 254.922 172.000 269.253 172.000 L 283.584 172.000 284.742 174.500 M269.200 214.548 C 269.200 214.875,268.963 215.381,268.672 215.671 C 268.382 215.962,268.040 216.560,267.912 217.000 C 267.427 218.664,265.182 224.551,264.425 226.142 C 263.992 227.054,262.979 229.600,262.176 231.800 C 261.372 234.000,260.583 235.890,260.422 236.000 C 260.261 236.110,260.028 236.560,259.904 237.000 C 259.462 238.569,257.200 244.513,256.426 246.142 C 255.992 247.054,255.012 249.510,254.248 251.600 L 252.860 255.400 269.292 255.504 C 278.330 255.562,285.804 255.529,285.902 255.432 C 285.999 255.334,285.594 253.937,285.001 252.327 C 284.409 250.717,283.822 249.040,283.697 248.600 C 283.572 248.160,283.328 247.705,283.155 247.589 C 282.982 247.472,282.126 245.402,281.254 242.989 C 280.382 240.575,279.381 238.038,279.030 237.351 C 278.408 236.133,276.145 230.194,275.696 228.600 C 275.572 228.160,275.328 227.705,275.155 227.589 C 274.982 227.472,274.125 225.402,273.251 222.989 C 272.376 220.575,271.288 217.844,270.831 216.919 C 270.374 215.995,270.000 215.061,270.000 214.843 C 270.000 214.625,269.820 214.336,269.600 214.200 C 269.380 214.064,269.200 214.221,269.200 214.548 M103.200 256.745 C 103.200 271.263,103.434 275.394,104.370 277.400 C 104.576 277.840,105.239 279.370,105.845 280.800 C 107.787 285.385,113.002 291.278,116.618 292.972 C 117.488 293.380,119.100 294.145,120.200 294.673 C 124.060 296.526,124.345 296.547,149.000 296.778 L 172.600 297.000 172.600 311.200 L 172.600 325.400 151.400 325.522 C 130.794 325.641,120.383 325.260,120.067 324.374 C 119.993 324.168,119.543 324.000,119.067 323.999 C 115.750 323.995,102.356 318.699,100.193 316.536 C 99.815 316.158,98.990 315.568,98.359 315.225 C 94.897 313.340,86.661 305.008,84.496 301.200 C 83.934 300.210,83.261 299.220,83.001 299.000 C 82.404 298.494,79.600 292.826,79.600 292.124 C 79.600 291.836,79.435 291.600,79.233 291.600 C 78.689 291.600,76.920 285.920,76.181 281.800 C 75.825 279.820,75.327 277.840,75.073 277.400 C 74.749 276.839,74.568 271.314,74.467 258.900 L 74.324 241.200 88.762 241.200 L 103.200 241.200 103.200 256.745 " stroke="none" fill="#ec4c8c" fill-rule="evenodd"></path><path id="path2" d="" stroke="none" fill="#f4d4100" fill-rule="evenodd"></path><path id="path3" d="M235.600 74.690 C 256.786 74.968,273.107 74.972,272.938 74.700 C 272.836 74.535,262.548 74.441,250.076 74.491 C 237.604 74.542,231.090 74.631,235.600 74.690 M286.800 77.414 C 286.800 77.693,289.706 78.831,290.091 78.703 C 290.282 78.639,289.620 78.284,288.619 77.913 C 287.619 77.542,286.800 77.317,286.800 77.414 M302.400 85.290 C 302.400 85.377,303.435 86.328,304.700 87.403 C 305.965 88.479,306.640 88.944,306.200 88.436 C 305.364 87.471,302.400 85.017,302.400 85.290 M308.783 90.900 C 310.441 92.666,310.800 92.984,310.800 92.683 C 310.800 92.619,309.945 91.764,308.900 90.783 L 307.000 89.000 308.783 90.900 M312.597 95.300 C 313.672 96.565,314.623 97.600,314.710 97.600 C 314.983 97.600,312.529 94.636,311.564 93.800 C 311.056 93.360,311.521 94.035,312.597 95.300 M321.200 109.884 C 321.200 110.451,322.363 113.200,322.602 113.200 C 322.707 113.200,322.496 112.435,322.132 111.500 C 321.395 109.607,321.200 109.269,321.200 109.884 M88.994 137.400 L 89.000 158.200 102.700 158.208 L 116.400 158.216 102.804 158.103 L 89.207 157.990 89.098 137.295 L 88.989 116.600 88.994 137.400 M324.641 122.800 C 324.839 123.130,325.109 131.320,325.243 141.000 L 325.485 158.600 325.443 140.920 C 325.407 126.341,325.302 123.148,324.841 122.720 C 324.377 122.288,324.343 122.301,324.641 122.800 M151.074 158.299 C 154.855 158.365,161.155 158.365,165.074 158.299 C 168.993 158.234,165.900 158.180,158.200 158.180 C 150.500 158.180,147.293 158.234,151.074 158.299 M253.700 175.700 C 253.270 176.875,253.280 176.926,253.812 176.224 C 254.321 175.552,254.621 174.400,254.288 174.400 C 254.226 174.400,253.961 174.985,253.700 175.700 M250.196 184.272 C 249.858 185.081,249.633 185.900,249.697 186.091 C 249.761 186.282,250.116 185.620,250.487 184.619 C 251.293 182.445,251.070 182.179,250.196 184.272 M74.729 186.300 C 82.500 186.361,95.100 186.361,102.729 186.300 C 110.358 186.239,104.000 186.189,88.600 186.189 C 73.200 186.189,66.958 186.239,74.729 186.300 M158.500 186.300 C 166.145 186.361,178.655 186.361,186.300 186.300 C 193.945 186.239,187.690 186.189,172.400 186.189 C 157.110 186.189,150.855 186.239,158.500 186.300 M289.200 186.284 C 289.200 186.851,290.363 189.600,290.602 189.600 C 290.707 189.600,290.496 188.835,290.132 187.900 C 289.395 186.007,289.200 185.669,289.200 186.284 M245.700 195.700 C 245.270 196.875,245.280 196.926,245.812 196.224 C 246.321 195.552,246.621 194.400,246.288 194.400 C 246.226 194.400,245.961 194.985,245.700 195.700 M242.196 204.272 C 241.858 205.081,241.633 205.900,241.697 206.091 C 241.761 206.282,242.116 205.620,242.487 204.619 C 243.293 202.445,243.070 202.179,242.196 204.272 M297.200 206.284 C 297.200 206.851,298.363 209.600,298.602 209.600 C 298.707 209.600,298.496 208.835,298.132 207.900 C 297.395 206.007,297.200 205.669,297.200 206.284 M237.700 215.700 C 237.270 216.875,237.280 216.926,237.812 216.224 C 238.321 215.552,238.621 214.400,238.288 214.400 C 238.226 214.400,237.961 214.985,237.700 215.700 M270.032 214.824 C 270.014 215.166,270.280 215.796,270.622 216.224 C 271.234 216.988,271.238 216.987,270.876 216.200 C 270.674 215.760,270.408 215.130,270.286 214.800 C 270.093 214.282,270.059 214.285,270.032 214.824 M265.267 223.180 C 265.033 223.851,264.927 224.400,265.031 224.400 C 265.301 224.400,266.056 222.322,265.857 222.124 C 265.767 222.033,265.501 222.508,265.267 223.180 M234.196 224.272 C 233.858 225.081,233.633 225.900,233.697 226.091 C 233.761 226.282,234.116 225.620,234.487 224.619 C 235.293 222.445,235.070 222.179,234.196 224.272 M273.913 224.619 C 274.284 225.620,274.639 226.282,274.703 226.091 C 274.831 225.706,273.693 222.800,273.414 222.800 C 273.317 222.800,273.542 223.619,273.913 224.619 M305.200 226.284 C 305.200 226.851,306.363 229.600,306.602 229.600 C 306.707 229.600,306.496 228.835,306.132 227.900 C 305.395 226.007,305.200 225.669,305.200 226.284 M261.756 231.843 C 261.424 232.637,261.226 233.359,261.314 233.448 C 261.403 233.536,261.759 232.887,262.105 232.004 C 262.889 230.009,262.582 229.868,261.756 231.843 M229.700 235.700 C 229.270 236.875,229.280 236.926,229.812 236.224 C 230.321 235.552,230.621 234.400,230.288 234.400 C 230.226 234.400,229.961 234.985,229.700 235.700 M278.032 234.824 C 278.014 235.166,278.280 235.796,278.622 236.224 C 279.234 236.988,279.238 236.987,278.876 236.200 C 278.674 235.760,278.408 235.130,278.286 234.800 C 278.093 234.282,278.059 234.285,278.032 234.824 M309.113 236.219 C 309.484 237.220,309.839 237.882,309.903 237.691 C 310.031 237.306,308.893 234.400,308.614 234.400 C 308.517 234.400,308.742 235.219,309.113 236.219 M74.488 257.076 C 74.440 265.698,74.535 272.836,74.700 272.939 C 74.973 273.108,74.967 261.235,74.687 247.000 C 74.626 243.920,74.537 248.454,74.488 257.076 M257.267 243.180 C 257.033 243.851,256.927 244.400,257.031 244.400 C 257.301 244.400,258.056 242.322,257.857 242.124 C 257.767 242.033,257.501 242.508,257.267 243.180 M226.196 244.272 C 225.858 245.081,225.633 245.900,225.697 246.091 C 225.761 246.282,226.116 245.620,226.487 244.619 C 227.293 242.445,227.070 242.179,226.196 244.272 M281.913 244.619 C 282.284 245.620,282.639 246.282,282.703 246.091 C 282.831 245.706,281.693 242.800,281.414 242.800 C 281.317 242.800,281.542 243.619,281.913 244.619 M313.200 246.284 C 313.200 246.851,314.363 249.600,314.602 249.600 C 314.707 249.600,314.496 248.835,314.132 247.900 C 313.395 246.007,313.200 245.669,313.200 246.284 M253.756 251.843 C 253.424 252.637,253.226 253.359,253.314 253.448 C 253.403 253.536,253.759 252.887,254.105 252.004 C 254.889 250.009,254.582 249.868,253.756 251.843 M221.700 255.700 C 221.270 256.875,221.280 256.926,221.812 256.224 C 222.321 255.552,222.621 254.400,222.288 254.400 C 222.226 254.400,221.961 254.985,221.700 255.700 M317.113 256.219 C 317.484 257.220,317.839 257.882,317.903 257.691 C 318.031 257.306,316.893 254.400,316.614 254.400 C 316.517 254.400,316.742 255.219,317.113 256.219 M218.196 264.272 C 217.858 265.081,217.633 265.900,217.697 266.091 C 217.761 266.282,218.116 265.620,218.487 264.619 C 219.293 262.445,219.070 262.179,218.196 264.272 M321.200 266.284 C 321.200 266.851,322.363 269.600,322.602 269.600 C 322.707 269.600,322.496 268.835,322.132 267.900 C 321.395 266.007,321.200 265.669,321.200 266.284 M213.700 275.700 C 213.270 276.875,213.280 276.926,213.812 276.224 C 214.321 275.552,214.621 274.400,214.288 274.400 C 214.226 274.400,213.961 274.985,213.700 275.700 M325.113 276.219 C 325.484 277.220,325.839 277.882,325.903 277.691 C 326.031 277.306,324.893 274.400,324.614 274.400 C 324.517 274.400,324.742 275.219,325.113 276.219 M105.007 279.879 C 105.607 281.314,106.000 281.962,106.000 281.516 C 106.000 281.084,104.785 278.400,104.589 278.400 C 104.479 278.400,104.667 279.066,105.007 279.879 M210.196 284.272 C 209.858 285.081,209.633 285.900,209.697 286.091 C 209.761 286.282,210.116 285.620,210.487 284.619 C 211.293 282.445,211.070 282.179,210.196 284.272 M329.200 286.284 C 329.200 286.851,330.363 289.600,330.602 289.600 C 330.707 289.600,330.496 288.835,330.132 287.900 C 329.395 286.007,329.200 285.669,329.200 286.284 M77.913 288.619 C 78.284 289.620,78.639 290.282,78.703 290.091 C 78.831 289.706,77.693 286.800,77.414 286.800 C 77.317 286.800,77.542 287.619,77.913 288.619 M237.756 291.843 C 237.424 292.637,237.226 293.359,237.314 293.448 C 237.403 293.536,237.759 292.887,238.105 292.004 C 238.889 290.009,238.582 289.868,237.756 291.843 M301.600 293.884 C 301.600 294.451,302.763 297.200,303.002 297.200 C 303.107 297.200,302.896 296.435,302.532 295.500 C 301.795 293.607,301.600 293.269,301.600 293.884 M205.700 295.700 C 205.270 296.875,205.280 296.926,205.812 296.224 C 206.321 295.552,206.621 294.400,206.288 294.400 C 206.226 294.400,205.961 294.985,205.700 295.700 M333.113 296.219 C 333.484 297.220,333.839 297.882,333.903 297.691 C 334.031 297.306,332.893 294.400,332.614 294.400 C 332.517 294.400,332.742 295.219,333.113 296.219 M233.095 303.596 C 232.748 304.478,232.549 305.200,232.653 305.200 C 232.923 305.200,234.078 302.345,233.886 302.152 C 233.797 302.064,233.441 302.713,233.095 303.596 M86.322 303.900 C 86.977 304.725,87.928 305.760,88.436 306.200 C 88.944 306.640,88.479 305.965,87.403 304.700 C 85.213 302.124,84.490 301.589,86.322 303.900 M202.196 304.272 C 201.858 305.081,201.633 305.900,201.697 306.091 C 201.761 306.282,202.116 305.620,202.487 304.619 C 203.293 302.445,203.070 302.179,202.196 304.272 M305.524 303.800 C 305.726 304.240,305.992 304.870,306.114 305.200 C 306.307 305.718,306.341 305.715,306.368 305.176 C 306.386 304.834,306.120 304.204,305.778 303.776 C 305.166 303.012,305.162 303.013,305.524 303.800 M337.200 306.284 C 337.200 306.851,338.363 309.600,338.602 309.600 C 338.707 309.600,338.496 308.835,338.132 307.900 C 337.395 306.007,337.200 305.669,337.200 306.284 M90.783 308.900 C 91.764 309.945,92.619 310.800,92.683 310.800 C 92.984 310.800,92.666 310.441,90.900 308.783 L 89.000 307.000 90.783 308.900 M229.756 311.843 C 229.424 312.637,229.226 313.359,229.314 313.448 C 229.403 313.536,229.759 312.887,230.105 312.004 C 230.889 310.009,230.582 309.868,229.756 311.843 M93.800 311.564 C 94.636 312.529,97.600 314.983,97.600 314.710 C 97.600 314.623,96.565 313.672,95.300 312.597 C 94.035 311.521,93.360 311.056,93.800 311.564 M197.700 315.700 C 197.270 316.875,197.280 316.926,197.812 316.224 C 198.321 315.552,198.621 314.400,198.288 314.400 C 198.226 314.400,197.961 314.985,197.700 315.700 M310.032 314.824 C 310.014 315.166,310.280 315.796,310.622 316.224 C 311.234 316.988,311.238 316.987,310.876 316.200 C 310.674 315.760,310.408 315.130,310.286 314.800 C 310.093 314.282,310.059 314.285,310.032 314.824 M341.113 316.219 C 341.484 317.220,341.839 317.882,341.903 317.691 C 342.031 317.306,340.893 314.400,340.614 314.400 C 340.517 314.400,340.742 315.219,341.113 316.219 M109.633 321.335 C 110.019 321.647,113.200 322.777,113.200 322.602 C 113.200 322.363,110.451 321.200,109.884 321.200 C 109.655 321.200,109.542 321.261,109.633 321.335 M225.095 323.596 L 224.464 325.200 209.432 325.200 C 201.164 325.200,194.400 325.122,194.400 325.026 C 194.400 324.930,194.591 324.345,194.825 323.726 C 195.109 322.974,195.113 322.736,194.837 323.009 C 194.609 323.233,194.373 323.863,194.311 324.409 L 194.200 325.400 209.400 325.400 L 224.600 325.400 225.344 323.877 C 225.753 323.040,226.006 322.273,225.906 322.173 C 225.806 322.073,225.441 322.713,225.095 323.596 M313.791 324.300 L 314.421 325.600 329.510 325.505 L 344.600 325.410 329.500 325.300 C 321.195 325.240,314.400 325.047,314.400 324.872 C 314.400 324.696,314.121 324.204,313.781 323.776 C 313.234 323.091,313.235 323.152,313.791 324.300 M127.143 325.303 C 127.310 325.470,137.606 325.560,150.023 325.503 L 172.600 325.400 149.720 325.200 C 137.136 325.090,126.976 325.137,127.143 325.303 " stroke="none" fill="#f478c8" fill-rule="evenodd"></path><path id="path4" d="M144.580 75.000 C 144.580 82.700,144.634 85.793,144.699 81.874 C 144.765 77.955,144.765 71.655,144.699 67.874 C 144.634 64.093,144.580 67.300,144.580 75.000 M274.100 75.087 C 274.705 75.178,275.695 75.178,276.300 75.087 C 276.905 74.995,276.410 74.920,275.200 74.920 C 273.990 74.920,273.495 74.995,274.100 75.087 M95.900 117.099 C 99.695 117.165,105.905 117.165,109.700 117.099 C 113.495 117.034,110.390 116.980,102.800 116.980 C 95.210 116.980,92.105 117.034,95.900 117.099 M144.583 117.300 C 144.478 117.575,144.440 126.890,144.500 138.000 L 144.608 158.200 144.704 137.705 L 144.800 117.211 158.500 117.100 L 172.200 116.989 158.487 116.895 C 147.816 116.821,144.732 116.911,144.583 117.300 M324.493 121.200 C 324.493 121.970,324.575 122.285,324.676 121.900 C 324.776 121.515,324.776 120.885,324.676 120.500 C 324.575 120.115,324.493 120.430,324.493 121.200 M288.429 184.310 C 288.676 185.020,289.042 185.703,289.242 185.826 C 289.442 185.950,289.391 185.544,289.127 184.925 C 288.421 183.265,287.906 182.812,288.429 184.310 M144.586 207.200 C 144.586 218.750,144.637 223.475,144.700 217.700 C 144.762 211.925,144.762 202.475,144.700 196.700 C 144.637 190.925,144.586 195.650,144.586 207.200 M296.429 204.310 C 296.676 205.020,297.042 205.703,297.242 205.826 C 297.442 205.950,297.391 205.544,297.127 204.925 C 296.421 203.265,295.906 202.812,296.429 204.310 M268.779 214.655 C 268.558 215.236,268.464 215.797,268.569 215.903 C 268.675 216.008,268.879 215.624,269.023 215.050 C 269.170 214.465,269.470 214.120,269.704 214.265 C 269.949 214.416,270.005 214.331,269.838 214.062 C 269.416 213.379,269.223 213.487,268.779 214.655 M304.429 224.310 C 304.676 225.020,305.042 225.703,305.242 225.826 C 305.442 225.950,305.391 225.544,305.127 224.925 C 304.421 223.265,303.906 222.812,304.429 224.310 M260.779 234.655 C 260.558 235.236,260.452 235.785,260.543 235.876 C 260.633 235.967,260.899 235.492,261.133 234.820 C 261.653 233.328,261.339 233.182,260.779 234.655 M74.920 275.200 C 74.920 276.410,74.995 276.905,75.087 276.300 C 75.178 275.695,75.178 274.705,75.087 274.100 C 74.995 273.495,74.920 273.990,74.920 275.200 M172.580 311.200 C 172.580 319.010,172.634 322.205,172.699 318.300 C 172.765 314.395,172.765 308.005,172.699 304.100 C 172.634 300.195,172.580 303.390,172.580 311.200 M107.200 320.179 C 107.200 320.289,107.740 320.659,108.400 321.000 C 109.060 321.341,109.600 321.531,109.600 321.421 C 109.600 321.311,109.060 320.941,108.400 320.600 C 107.740 320.259,107.200 320.069,107.200 320.179 M120.500 324.676 C 120.885 324.776,121.515 324.776,121.900 324.676 C 122.285 324.575,121.970 324.493,121.200 324.493 C 120.430 324.493,120.115 324.575,120.500 324.676 M123.700 325.087 C 124.305 325.178,125.295 325.178,125.900 325.087 C 126.505 324.995,126.010 324.920,124.800 324.920 C 123.590 324.920,123.095 324.995,123.700 325.087 " stroke="none" fill="#f47c8c" fill-rule="evenodd"></path></g></svg>
